<?xml version="1.0" standalone="no"?><!DOCTYPE svg PUBLIC "-//W3C//DTD SVG 1.1//EN" "http://www.w3.org/Graphics/SVG/1.1/DTD/svg11.dtd"><svg class="icon" width="16px" height="16.00px" viewBox="0 0 1024 1024" version="1.1" xmlns="http://www.w3.org/2000/svg"><path fill="#BFCBD9" d="M 144.8 553.3 h 56 V 220.5 c 0 -18.9 7.6 -35.7 20.4 -48.3 c 12.4 -12.3 29.9 -20.2 49.1 -20.2 h 483.3 c 19.1 0 36.5 7.9 49.1 20.2 l 1.3 1.1 c 12.2 12.4 19.3 28.9 19.3 47.2 v 332.9 h 55.8 c 16.7 0 30.8 13.4 30.8 30 v 273.1 c 0 16.6 -14.1 30 -30.8 30 H 144.8 c -16.9 0 -30.6 -13.4 -30.6 -30 V 583.3 c 0 -16.5 13.7 -30 30.6 -30 Z m 92.5 0 h 86.9 c 16.1 0 29.1 12.1 30.8 27.9 c 6.1 36.6 25.6 68.7 53.4 91.9 c 27.8 23.4 64.1 37.4 103.8 37.4 c 39.1 0 75.3 -14 103.3 -37.4 c 28.2 -23.4 48.2 -56.8 54.3 -94.2 c 2 -14.9 15.2 -25.3 30 -25.3 v -0.2 h 86.6 V 220.5 c 0 -8.5 -3.3 -16.2 -8.5 -22.1 l -0.9 -0.6 c -6.3 -5.9 -14.3 -9.6 -23.5 -9.6 H 270.3 c -9.1 0 -17.4 3.6 -23.5 9.6 c -5.7 5.8 -9.6 13.8 -9.6 22.8 v 332.7 h 0.1 Z M 339.4 397 l 121.2 119.1 c 11.7 11.5 31.3 11.7 43 0 l 218.9 -214.4 c 12.2 -11.9 12.2 -30.7 0 -42.6 c -11.7 -11.5 -31.3 -11.5 -43 0 L 481.8 452.5 l -99.4 -97.6 c -11.7 -11.5 -31.3 -11.5 -43 0 c -12.2 11.5 -12.2 30.4 0 42.1 Z m -39.5 216.6 H 175.2 v 212.7 h 673.1 V 613.6 H 724.1 c -11.9 41.5 -36.5 77.8 -69.1 105.1 c -38.2 32.3 -88.6 51.9 -142.9 51.9 c -54.7 0 -104.7 -19.6 -143.5 -51.9 c -32.3 -27.3 -56.8 -63.7 -68.7 -105.1 Z"  /></svg>