<?xml version="1.0" standalone="no"?><!DOCTYPE svg PUBLIC "-//W3C//DTD SVG 1.1//EN" "http://www.w3.org/Graphics/SVG/1.1/DTD/svg11.dtd"><svg class="icon" width="16px" height="16.00px" viewBox="0 0 1024 1024" version="1.1" xmlns="http://www.w3.org/2000/svg"><path fill="#BFCBD9" d="M624.170667 541.184c-41.194667 40.277333-68.864 70.570667-82.986667 90.88-36.821333 52.970667-44.629333 106.432-44.629333 150.506667 0 55.466667 14.72 107.456 40.469333 152.234666H76.693333c-18.773333 0-34.026667-16.298667-34.026666-36.394666v-45.610667c0-3.413333 0.533333-6.912 1.664-10.538667 10.112-30.805333 31.146667-58.090667 62.506666-81.173333 24.362667-17.962667 55.232-33.536 91.712-46.357333 56.661333-19.904 115.370667-27.882667 135.125334-30.250667 1.066667-0.128-0.917333-51.434667-0.277334-52.416 0.128-0.213333 0-18.922667-10.965333-31.274667a3.370667 3.370667 0 0 0-0.810667-0.896c-32.469333-27.456-60.117333-66.56-80.277333-113.493333a4.032 4.032 0 0 0-3.072-2.496c-28.245333-4.138667-54.336-34.752-63.594667-75.818667-10.154667-45.013333 1.344-87.338667 27.434667-104.277333a4.373333 4.373333 0 0 0 1.898667-3.733333c-1.365333-86.058667 19.2-154.346667 61.226666-202.986667C319.253333 34.474667 393.429333 21.333333 446.101333 21.333333c52.693333 0 126.848 13.141333 180.906667 75.754667 42.026667 48.64 62.592 116.906667 61.226667 202.986667a4.394667 4.394667 0 0 0 1.898666 3.733333c26.069333 16.938667 37.568 59.242667 27.434667 104.277333-9.28 41.066667-35.370667 71.68-63.616 75.818667a4.032 4.032 0 0 0-3.093333 2.474667c-6.656 15.616-14.4 30.72-23.168 45.226666l-3.541334 9.578667zM768 981.333333c-117.824 0-213.333333-95.509333-213.333333-213.333333s95.509333-213.333333 213.333333-213.333333 213.333333 95.509333 213.333333 213.333333-95.509333 213.333333-213.333333 213.333333z m-10.602667-134.656l131.584-125.098666a22.037333 22.037333 0 0 0 0-32.256 25.002667 25.002667 0 0 0-33.941333 0l-114.602667 108.949333-59.477333-56.469333a25.002667 25.002667 0 0 0-33.92 0 22.037333 22.037333 0 0 0 0 32.277333l76.416 72.597333a25.002667 25.002667 0 0 0 33.941333 0z"  /></svg>